inDegrees=no
num_controls=7
num_derivatives=13
num_iterations=128
num_multipliers=7
num_parameters=0
num_slacks=7
num_states=26
objective=0.448498
objective_accelerations=0.048817
objective_balance=0.007536
objective_effort=0.036421
objective_height=0.350783
objective_ligament=0.004940
solver_duration=1848.335634
status=Solve_Succeeded
success=true
DataType=double
version=3
OpenSimVersion=4.5
endheader
time	/jointset/ground_pelvis/pelvis_tilt/value	/jointset/ground_pelvis/pelvis_tx/value	/jointset/ground_pelvis/pelvis_ty/value	/jointset/hip_l/hip_flexion_l/value	/jointset/hip_l/hip_adduction_l/value	/jointset/hip_l/hip_rotation_l/value	/jointset/back/lumbar_extension/value	/jointset/patellofemoral_l/patellar_flexion_l/value	/jointset/knee_l/knee_flexion_l/value	/jointset/knee_l/knee_adduction_l/value	/jointset/knee_l/knee_rotation_l/value	/jointset/ankle_l/ankle_angle_l/value	/jointset/subtalar_l/subtalar_angle_l/value	/jointset/ground_pelvis/pelvis_tilt/speed	/jointset/ground_pelvis/pelvis_tx/speed	/jointset/ground_pelvis/pelvis_ty/speed	/jointset/hip_l/hip_flexion_l/speed	/jointset/hip_l/hip_adduction_l/speed	/jointset/hip_l/hip_rotation_l/speed	/jointset/back/lumbar_extension/speed	/jointset/patellofemoral_l/patellar_flexion_l/speed	/jointset/knee_l/knee_flexion_l/speed	/jointset/knee_l/knee_adduction_l/speed	/jointset/knee_l/knee_rotation_l/speed	/jointset/ankle_l/ankle_angle_l/speed	/jointset/subtalar_l/subtalar_angle_l/speed	/forceset/tau_hip_flexion_l	/forceset/tau_hip_adduction_l	/forceset/tau_hip_rotation_l	/forceset/tau_knee_flexion_l	/forceset/tau_ankle_angle_l	/forceset/tau_subtalar_angle_l	/forceset/tau_lumbar_extension	lambda_cid13_p0	lambda_cid13_p1	lambda_cid13_p2	lambda_cid13_p3	lambda_cid13_p4	lambda_cid13_p5	lambda_cid14_p0	/jointset/ground_pelvis/pelvis_tilt/accel	/jointset/ground_pelvis/pelvis_tx/accel	/jointset/ground_pelvis/pelvis_ty/accel	/jointset/hip_l/hip_flexion_l/accel	/jointset/hip_l/hip_adduction_l/accel	/jointset/hip_l/hip_rotation_l/accel	/jointset/back/lumbar_extension/accel	/jointset/patellofemoral_l/patellar_flexion_l/accel	/jointset/knee_l/knee_flexion_l/accel	/jointset/knee_l/knee_adduction_l/accel	/jointset/knee_l/knee_rotation_l/accel	/jointset/ankle_l/ankle_angle_l/accel	/jointset/subtalar_l/subtalar_angle_l/accel	gamma_cid13_p0	gamma_cid13_p1	gamma_cid13_p2	gamma_cid13_p3	gamma_cid13_p4	gamma_cid13_p5	gamma_cid14_p0
0	-0.1598599633376754	0.05846037651674482	0.8979884691361221	0.3774924667018715	-0.2592866342322573	-0.2704249373719282	-0.01265067647494873	0.03223648243721437	0.03223648243721463	-0.174532760157246	0.1720984813781181	-0.04231377076293093	-0.009440610003959335	0	0	0	0	0	0	0	0	0	0	0	0	0	0.1551270985886323	-0.06304226411246477	-0.05243657888591327	-0.3121296648745443	0.3217440881436734	-0.06506848071883196	-0.09804107454053398	60.25466137135242	11.10653447060591	5.36859808899472	-6.274568942628885	-589.6454690243366	-55.94212288864412	-38.9977467045579	-4.298807662867714	-2.146089024931611	-1.10886702691321	12.43573402496541	-1.255725051528663	2.996223356390996	-5.932330968753885	8.965030457239047	8.965030457239282	0.02939221387907659	0.1085428051605238	0.8980815880459844	-1.075788462552259	-3.615267050361612e-08	8.339520737807932e-08	1.045137871051456e-07	3.912092621950498e-09	7.280663304037474e-08	-2.305741292518448e-08	-1.634692984308867e-08
0.01	-0.1600668017775667	0.05835408007196975	0.8979343681925769	0.3780981064570995	-0.2593488548841814	-0.2702759419738824	-0.0129459354174967	0.03267388539481197	0.03267388539480957	-0.1745328713892057	0.1721010992327693	-0.04227191411176213	-0.009494528039839479	-0.04104892597635924	-0.02119519727111904	-0.01076874149905617	0.1204604998902659	-0.01234530197683335	0.02963480960346901	-0.05842217532523581	0.08703492344300925	0.08703492344300118	3.144586795080126e-05	0.0005278850946740497	0.008285083883838768	-0.01070513377274438	0.1428450505984223	-0.07063246972747257	-0.0496753745328981	-0.2947558889132287	0.2952186586651493	-0.04724499720327878	-0.08861682038404332	52.36925315881538	4.978542892516398	6.080486571555642	-1.718738451433141	-590.8128303022461	-66.90651501612102	-39.01035206597207	-3.96012956871506	-2.096620543057884	-1.053146068629963	11.75108272448171	-1.209133760644509	2.922455855843977	-5.702718836738414	8.505876345754142	8.505876345752709	-0.00189930256383391	0.02554659858468731	0.7807823783877378	-1.056129720617373	-5.349534226035824e-08	1.007178414235329e-07	1.155834441045461e-07	2.139100900767804e-08	-6.187340588658452e-08	4.350126103179938e-10	-1.873028549831295e-08
0.02	-0.1606745683779622	0.05803775456151235	0.8977741261625953	0.3798883261619154	-0.2595315687538514	-0.2698355292611014	-0.01380652771776427	0.03396826819842295	0.03396826819842238	-0.1745310521771792	0.1721091229857666	-0.04214979450378847	-0.009653148190643475	-0.08018563210051949	-0.04200581313646763	-0.02122821728728163	0.2369159899175084	-0.02409864354902813	0.0582834629477027	-0.1130666715436715	0.1713959692029095	0.1713959692028892	0.0003860887032203664	0.001081179667902138	0.01605259136107399	-0.0209404229847653	0.1305630026082313	-0.07822267534246188	-0.04691417017985962	-0.2773821129518983	0.2686932291866376	-0.02942151368770497	-0.07919256622755133	44.56011176754964	-1.16191495762728	6.793352471333583	2.722361779745336	-590.8070053958327	-77.76853500706437	-39.04754799077248	-3.916363692427967	-2.069172743777473	-1.04701388474709	11.63473205236066	-1.137332970601203	2.798992104543932	-5.17679514739387	8.430254920617246	8.430254920616644	0.09403160734232804	0.1136247008713551	0.7945663067252624	-0.98181955040782	-7.083801401710036e-08	1.180404754689864e-07	1.266531011039466e-07	3.886992539340559e-08	-1.965534448135438e-07	2.392743814582047e-08	-2.111364115353723e-08
0.03	-0.1616659502947963	0.05751549329955791	0.8975103997913023	0.3828254422929095	-0.2598291507014959	-0.2691131190518583	-0.015197951626243	0.03609410715134895	0.03609410715134991	-0.1745246087758686	0.1721228158653647	-0.04195195678382113	-0.009911940033257748	-0.1179150670433102	-0.06235493459602385	-0.03150276089418193	0.3500109169685219	-0.0353572355427525	0.08607768536778133	-0.1649536385118303	0.2534148775614901	0.2534148775614519	0.0008797787961440835	0.00165344236621384	0.02348065555896424	-0.03076726829741459	0.125875265912876	-0.07305385904171578	-0.04627772084450923	-0.2734496774827843	0.2652480374343682	-0.03195292263782001	-0.0753525632979226	43.39425933815711	0.03308380149683332	6.726796772195792	2.913306436506797	-590.5421307735718	-74.57817029061147	-39.10804818971458	-3.674887676064873	-2.00404830364621	-1.015570041945599	11.0724141979559	-1.111065238652614	2.751486080677594	-5.154976725488623	8.034171452707518	8.034171452705174	0.0236454748888551	0.02841833274051292	0.7117776412960615	-0.9755476982062466	-8.918292634525274e-08	1.315107077722836e-07	1.584559558880698e-07	5.282233516453145e-08	-2.809798038290991e-07	3.238188872125533e-08	-2.714961394751403e-08
0.04	-0.1630293574172305	0.05679248753168763	0.8971443488952835	0.3868786159277086	-0.2602375071540563	-0.2681163968644258	-0.01710031105519625	0.03902942771970715	0.03902942771970649	-0.1745139069206922	0.1721421096276295	-0.0416808681888798	-0.01026748646430107	-0.1545906732205092	-0.08215471431963642	-0.04169312223245433	0.4601274906789035	-0.0462535445322592	0.1131458585853707	-0.2152537756384595	0.3332922922892327	0.3332922922891781	0.001237779473924644	0.002201356201703135	0.03070276635586089	-0.04029134067057512	0.1211875292174979	-0.06788504274097196	-0.0456412715091758	-0.2695172420136795	0.2618028456820946	-0.03448433158793798	-0.07151256036830919	42.29851856824531	1.217875938549173	6.659507003542751	2.996561690341284	-589.2146677520318	-71.28990476859336	-39.19050228087142	-3.705597939309647	-1.959304396588729	-1.030177431021509	11.03906138423426	-1.064876369757692	2.65378226404608	-4.859429179087976	8.001956194449662	8.001956194449352	0.06689372431365577	0.1087549283068759	0.7533756265265533	-0.9212649625100878	-1.075485034274548e-07	1.449015091118249e-07	1.906862992863111e-07	6.670203345906758e-08	-3.643700044959657e-07	4.052627795730736e-08	-3.326089843507335e-08
0.05	-0.1647541762317043	0.05587458128442739	0.8966767197043637	0.3920177165082213	-0.2607525622276084	-0.2668527719661314	-0.01949561384867038	0.04275287197764169	0.0427528719776409	-0.1744996560636734	0.1721669001556336	-0.04133802335535144	-0.01071619655652548	-0.1901470218016033	-0.1012971850997851	-0.05182116347410817	0.567088763995327	-0.05666023286084915	0.13944793836556	-0.2633735396305218	0.4110085387782988	0.4110085387782356	0.001631901754385853	0.002750738922192681	0.03787623693596857	-0.04935486408083892	0.1139146924656824	-0.06553003359652038	-0.04455035207378587	-0.2632839770248348	0.2548358883705491	-0.03253788474067714	-0.06560019498007659	40.23287258213226	0.716337125376491	6.759884451402028	3.333535303495554	-588.3430448476767	-71.13962013066501	-39.29321245822816	-3.446751075495584	-1.872302461241316	-1.002458146989571	10.43406578498521	-1.01400068865566	2.598715576244714	-4.723263495389039	7.598262499797979	7.59826249979691	0.02863599098196726	0.02710198485510758	0.7008318737037517	-0.8845674755823894	-1.211874580943438e-07	1.580846480936347e-07	2.040092030961048e-07	8.079545246161663e-08	-4.359422633609825e-07	4.403597740308926e-08	-3.501589720446102e-08
